<svg xmlns="http://www.w3.org/2000/svg" width="511.107" height="360" viewBox="0 0 511.107 360">
  <g id="Grupo_2" data-name="Grupo 2" transform="translate(-50.447 538.5)">
    <g id="New_Layer" data-name="New Layer" transform="translate(0 38)">
      <g id="Grupo_1" data-name="Grupo 1">
        <path id="Caminho_1" data-name="Caminho 1" d="M297.3-574.4c-3.3,1.6-15.2,14.8-54.8,60.5-27.9,32.1-51.4,59.3-52.4,60.5l-1.7,2.1-55.9-27.2C69.9-509,69.9-509,61-504.3a26.029,26.029,0,0,0-7.4,6.6c-5.9,8.4-7.9.3,34.9,141.3,28.1,92.8,39.4,128.5,41.3,131.3a23.876,23.876,0,0,0,7.1,6.3l4.4,2.3H470.7l4.4-2.3a23.876,23.876,0,0,0,7.1-6.3c1.9-2.8,13.2-38.6,41.3-131.3,42.8-141,40.8-132.9,34.9-141.3a26.029,26.029,0,0,0-7.4-6.6c-8.9-4.7-8.9-4.7-71.4,25.8-54.8,26.7-55.9,27.2-57.5,25.2-.9-1.1-24.5-28.3-52.4-60.6-54.6-62.7-54.4-62.6-63.8-62.6A22.181,22.181,0,0,0,297.3-574.4Zm59.2,106.8c52.7,60.8,53,61,61.6,61.1,5.3,0,7.7-1,50.8-22,21.6-10.5,39.5-19,39.7-18.8s-12.7,43.1-28.5,95.3l-28.9,95H160.8l-28.9-95c-15.8-52.2-28.7-95.1-28.4-95.3.2-.2,17.2,7.8,37.7,17.8,44.4,21.8,47.1,23,52.3,23,9,0,8.9.1,62.1-61.4,27.5-31.6,50.2-57.4,50.5-57.3C306.5-525.1,329.1-499.2,356.5-467.6Z" fill="#fff" fill-rule="evenodd"/>
      </g>
    </g>
  </g>
</svg>
