<svg xmlns="http://www.w3.org/2000/svg" width="426.659" height="512.306" viewBox="0 0 426.659 512.306">
  <path id="Caminho_2" data-name="Caminho 2" d="M300-651.347A16.588,16.588,0,0,0,289.394-640c-2.526,11-.394,24.724-.394,36,0,5.047-1,11.229,1,16,3.238,8,13,11.494,21,9.211,5-1.473,9.713-5.006,11.347-10.211,1.653-5.439.653-12.354.653-18C323-622.7,329.353-657.4,300-651.347Zm-120,38.88C170-610,165.964-599.263,168.638-590c1.625,5.631,6.027,10.322,9.362,15,8,11.262,18,32.713,35,28.072A17.432,17.432,0,0,0,225-569c-1.58-5.7-6-10.271-9.29-15C207.23-595.841,197.641-616.754,180-612.467Zm242,0c-5.34,1.3-8.677,5.277-12,9.467-7.452,10-21.189,23.5-23.531,36-2.229,12,8.46,23,20.531,20.478,13-2.708,22-21.38,29.29-31.478,2.71-3.976,6.256-8,7.32-13C446.581-604.642,435.8-615.82,422-612.467ZM249-253H362c0-11.747-3.183-28.968.995-40,9.424-24.889,31.946-45.944,46.31-68a124.919,124.919,0,0,0,19.525-79c-1.594-16.685-6.568-32-14.078-47A110.333,110.333,0,0,0,389-520c-62-55.354-161.134-34.462-195.687,41C176-441.483,180.3-395.395,202.7-361c13.868,21.3,37.615,42.483,45.606,67C252-282.352,249-265.236,249-253ZM105-509.467C92.939-506.534,89-489.929,97.225-481c8.639,9.272,28.039,11.44,39.775,15.333,5.274,1.75,10.44,3.667,16,1.867,12.307-3.709,16.662-21.029,6.892-29.86-4.085-3.692-9.892-4.976-14.892-6.673C133.415-504.2,117.351-512.47,105-509.467Zm391-.015c-12.059,2.557-37.6,7.861-45.581,17.576-10.124,12.327,1.167,31.073,16.581,28.58,12.682-2.052,40.41-8.464,48.581-18.674C527-496.385,511.637-512.8,496-509.482ZM257-234.442c-11.129,2.935-13.392,20.442-2,24.7,6.693,2.742,16.893.742,24,.742h53c7.36,0,19.322,2.26,25.985-1.179,10.713-5.53,7.277-22.294-3.986-24.481-19.248-3.736-42.376-.34-62-.34C281-235,267.512-237.214,257-234.442ZM254-190c.224,10.807,5.393,21,15,26.468,3.538,2.021,8.349,2.165,11.581,4.532,7.628,5.546,6.934,15.816,18.419,18.471,9.285,2.146,19.445-.017,25.66-7.471,2.638-3.186,3.34-8.6,6.759-11,3.232-2.367,8.043-2.511,11.581-4.532C352.716-169,357.533-179,358-190Z" transform="translate(-92.883 652.048)"/>
</svg>
