<svg xmlns="http://www.w3.org/2000/svg" width="368.584" height="513.943" viewBox="0 0 368.584 513.943">
  <g id="Grupo_1" data-name="Grupo 1" transform="translate(-121.708 1387.556)">
    <path id="Caminho_2" data-name="Caminho 2" d="M261-343c-14.485,24.817-25.385,52.276-38.247,78-8.573,17.146-17.753,34.431-25.329,52-5.894,13.51-12.2,25.719-8.744,41,6.2,27.418,40.694,41.18,64.32,26.289,18.561-11.7,32.976-34.841,47.282-51.289C332-233.652,364.176-270.189,395.87-307c7.676-8.916,19.882-18.789,24-30,4.4-12-2.867-26.2-15.867-27.815C383-367.4,364.479-334.856,352.576-321c-27.915,32.494-56.576,64.475-84.3,97Q255.332-208.9,242-194c-4,4.578-7.442,10.292-13,13,4.768-16.55,15-32.6,22.752-48,14.615-29.437,29.731-58.982,43.109-89,6.742-15,22.139-33.583,18.8-51C310-387.41,287.688-384,274-384H207c-15.278,0-29.507.164-39.084-14-11.652-17.232,1.487-34.311,9.331-50,19.687-39.374,38.991-79,59.534-118q8.664-16.419,16.972-33c1.982-3.963,3.911-10.581,8.247-12.4,10.616-4.3,29.636-.6,41-.6h98c-26.672,36.714-47.45,79.082-70.8,118-7.919,13.2-21.762,33.442-3.2,45.005,8.291,5.165,20.652,2.995,30,2.995h60c7.61,0,18.846-2,25.985.742,10.75,4.258,1.788,13.519-.057,20.258-3.215,11.748,4.783,24.338,17.072,25.814a20.685,20.685,0,0,0,10-1.063c32.379-11.146,21.251-62.743,0-77.962C457.471-487.184,442.7-487,428-487H375c16-34.223,39-66.595,58.6-99,7.213-12,21.91-28.833,23.295-43,2.646-27-27.046-23-44.895-23H294c-16.2,0-38.508-3.987-54,.8-12,3.705-16.7,20.2-21.753,30.2-14.033,28.066-28.457,56-42.494,84-11.528,23.056-23.466,46-35,69-6.382,12.764-14.173,25-17.328,39A71.714,71.714,0,0,0,150-356.677a66.768,66.768,0,0,0,28,12.217C204.439-339.474,234-343,261-343Z" transform="translate(-0.031 -734)"/>
  </g>
</svg>
