<svg xmlns="http://www.w3.org/2000/svg" width="257.745" height="255.1" viewBox="0 0 257.745 255.1">
  <g id="Grupo_2" data-name="Grupo 2" transform="translate(-190.525 482.838)">
    <g id="Grupo_1" data-name="Grupo 1">
      <path id="Caminho_1" data-name="Caminho 1" d="M256-472.558c-15.731,2.291-28.255,8.553-38.335,19.244-9.775,10.691-11.76,14.662-16.647,33.447-1.985,7.942-1.985,111.95,0,123.863,4.124,24.284,11.913,37.724,27.644,47.957,16.495,10.691,22.909,11.455,90.721,11.3,52.08,0,60.786-.305,69.339-2.749,13.9-3.818,23.062-8.706,30.087-16.495,17.411-18.938,20.466-33.142,20.466-96.524,0-41.389-1.833-71.019-4.735-78.35-5.04-12.218-8.858-18.175-16.647-25.506-10.386-9.469-21.687-14.357-38.946-16.342C364.586-474.238,268.215-474.238,256-472.558Zm69.186,56.968c1.833,1.222,3.513,6.262,4.887,14.662,2.749,15.273,6.873,25.2,11.76,27.8,6.415,3.665,14.051,5.956,20.313,6.109,14.662.305,22.451,7.484,17.564,16.342-1.833,3.055-4.429,4.429-11.455,6.109-31.309,7.331-30.393,6.415-37.113,31.768-3.818,14.662-4.735,16.8-8.247,18.022-5.8,1.985-11.3,0-13.135-4.735a135.791,135.791,0,0,1-3.055-14.662c-3.055-20.007-9.775-26.422-31.615-30.088-12.982-2.138-15.731-3.36-17.564-8.4-2.749-7.484,5.956-14.509,18.175-14.509,6.262,0,14.509-2.6,20.313-6.415,5.651-3.665,10.233-14.2,11.76-27.338,1.222-8.706,2.291-11.913,4.735-13.9C316.477-418.034,321.517-418.34,325.182-415.591Z" transform="translate(0 0)" fill="none" stroke="#000" stroke-width="18" fill-rule="evenodd"/>
    </g>
  </g>
</svg>
