<svg xmlns="http://www.w3.org/2000/svg" width="3998.164" height="4017.381" viewBox="0 0 3998.164 4017.381">
  <path id="Caminho_1" data-name="Caminho 1" d="M3961.26,1058.821C3585.412,682.534,3085.581,475.216,2553.042,475c-1097.261,0-1990.3,892.979-1990.736,1990.58-.147,350.863,91.519,693.325,265.729,995.23L545.617,4492.381,1600.93,4215.552c290.764,158.6,618.14,242.193,951.318,242.306h.823c1097.144,0,1990.265-893.067,1990.709-1990.691C4543.988,1935.249,4337.11,1435.093,3961.26,1058.821Zm-1408.2,3062.836h-.674c-296.9-.114-588.106-79.883-842.147-230.638l-60.419-35.855-626.237,164.274,167.153-610.575-39.341-62.6C985.77,3082.823,898.29,2778.347,898.419,2465.7c.362-912.277,742.625-1654.481,1655.3-1654.481,441.945.151,857.38,172.487,1169.78,485.244s484.334,728.464,484.162,1170.575C4207.3,3379.385,3465.04,4121.657,2553.063,4121.657Zm907.586-1239.218c-49.738-24.9-294.288-145.215-339.888-161.831-45.592-16.6-78.754-24.887-111.915,24.895s-128.481,161.844-157.5,195.041c-29.008,33.185-58.026,37.354-107.761,12.447s-210.017-77.416-400.008-246.888c-147.871-131.9-247.7-294.781-276.714-344.583s-3.094-76.708,21.807-101.512c22.38-22.292,49.746-58.1,74.614-87.146s33.159-49.8,49.74-82.978c16.578-33.208,8.291-62.25-4.148-87.144S2096.961,1733,2055.512,1633.4c-40.38-96.979-81.385-83.844-111.917-85.385-28.979-1.44-62.176-1.75-95.333-1.75s-87.05,12.449-132.643,62.239-174.091,170.145-174.091,414.964c0,244.841,178.233,481.361,203.105,514.559s350.746,535.615,849.728,751.074c118.672,51.253,211.331,81.858,283.563,104.777,119.159,37.87,227.595,32.523,313.3,19.711,95.567-14.274,294.291-120.32,335.745-236.506,41.441-116.208,41.441-215.8,29.006-236.54S3510.388,2907.347,3460.649,2882.439Z" transform="translate(-545.617 -475)" fill-rule="evenodd"/>
</svg>
